<?xml version="1.0" encoding="iso-8859-1"?>
<!-- Generator: Adobe Illustrator 19.0.0, SVG Export Plug-In . SVG Version: 6.00 Build 0)  -->
<svg version="1.1" id="Capa_1"
	xmlns="http://www.w3.org/2000/svg"
	xmlns:xlink="http://www.w3.org/1999/xlink" x="0px" y="0px" viewBox="0 0 416 416" style="enable-background:new 0 0 416 416;" xml:space="preserve">
	<path style="fill:#29ABE2;" d="M24,4h336c13.255,0,24,10.745,24,24v272c0,13.255-10.745,24-24,24H24c-13.255,0-24-10.745-24-24V28
	C0,14.745,10.745,4,24,4z"/>
	<path style="fill:#E6E6E6;" d="M0,260h384l0,0v40c0,13.255-10.745,24-24,24H24c-13.255,0-24-10.745-24-24V260L0,260z"/>
	<path style="fill:#B3B3B3;" d="M184,284h16v16h-16V284z"/>
	<path style="fill:#E6E6E6;" d="M264,412H32c-8.837,0-16-7.163-16-16s7.163-16,16-16h208L264,412z"/>
	<path style="fill:#CCCCCC;" d="M80,380l40-56h144v56H80z"/>
	<g>
		<path style="fill:#80CAEC;" d="M32,212h176v16H32V212z"/>
		<path style="fill:#80CAEC;" d="M48,180h16v16H48V180z"/>
		<path style="fill:#80CAEC;" d="M80,180h128v16H80V180z"/>
		<path style="fill:#80CAEC;" d="M176,68h176v16H176V68z"/>
		<path style="fill:#80CAEC;" d="M176,100h176v16H176V100z"/>
		<path style="fill:#80CAEC;" d="M192,36h16v16h-16V36z"/>
		<path style="fill:#80CAEC;" d="M224,36h128v16H224V36z"/>
	</g>
	<circle style="fill:#DA4836;" cx="96" cy="100" r="56"/>
	<path style="fill:#F2F2F2;" d="M125.656,81.656l-11.312-11.312L96,88.688L77.656,70.344L66.344,81.656L84.688,100l-18.344,18.344
	l11.312,11.312L96,111.312l18.344,18.344l11.312-11.312L107.312,100L125.656,81.656z"/>
	<path style="fill:#0071BC;" d="M376,132H248c-13.255,0-24,10.745-24,24v104h176V156C400,142.745,389.255,132,376,132z"/>
	<g>
		<path style="fill:#B3B3B3;" d="M224,260h16v64h-16V260z"/>
		<path style="fill:#B3B3B3;" d="M240,388v-8h-16v8c0,13.255,10.745,24,24,24l0,0h16C250.745,412,240,401.255,240,388L240,388z"/>
	</g>
	<path style="fill:#999999;" d="M224,324h16v56h-16V324z"/>
	<path style="fill:#29ABE2;" d="M264,148h128c13.255,0,24,10.745,24,24v216c0,13.255-10.745,24-24,24H264c-13.255,0-24-10.745-24-24
	V172C240,158.745,250.745,148,264,148z"/>
	<path style="fill:#E6E6E6;" d="M240,348h176l0,0v40c0,13.255-10.745,24-24,24l0,0H264c-13.255,0-24-10.745-24-24l0,0V348L240,348z" />
	<circle style="fill:#DA4836;" cx="328" cy="252" r="56"/>
	<path style="fill:#F2F2F2;" d="M357.656,233.656l-11.312-11.312L328,240.688l-18.344-18.344l-11.312,11.312L316.688,252
	l-18.344,18.344l11.312,11.312L328,263.312l18.344,18.344l11.312-11.312L339.312,252L357.656,233.656z"/>
	<path style="fill:#B3B3B3;" d="M320,372h16v16h-16V372z"/>
	<g>
	</g>
	<g>
	</g>
	<g>
	</g>
	<g>
	</g>
	<g>
	</g>
	<g>
	</g>
	<g>
	</g>
	<g>
	</g>
	<g>
	</g>
	<g>
	</g>
	<g>
	</g>
	<g>
	</g>
	<g>
	</g>
	<g>
	</g>
	<g>
	</g>
</svg>
